# xmcd CD database file
#
# Track frame offsets:
#	150
#	43205
#	61600
#	82893
#	113728
#	139450
#	155825
#	197693
#	210723
#	231105
#
# Disc length: 3319 seconds
#
# Revision: 1
# Processed by: cddbd v1.5.2PL0 Copyright (c) Steve Scherf et al.
# Submitted via: CDex 1.70beta3
#
DISCID=890cf50a
DTITLE=木住野佳子 - Heartscape
DYEAR=2005
DGENRE=Jazz
TTITLE0=Sketch of Praha
TTITLE1=Suna-Dokei 砂時計
TTITLE2=Kaze-Ni-Dakarete 風に抱かれて
TTITLE3=Sei-Ka-Fu 静香風
TTITLE4=Con Passione
TTITLE5=Ancient Dream
TTITLE6=Kaze-No-Joukei 風の情景
TTITLE7=Tsuki-No-Odori 月の踊り
TTITLE8=The Good Old Times
TTITLE9=A Song for My Friend
EXTD=YEAR: 2005
EXTT0=
EXTT1=
EXTT2=
EXTT3=
EXTT4=
EXTT5=
EXTT6=
EXTT7=
EXTT8=
EXTT9=
PLAYORDER=
